<svg xmlns="http://www.w3.org/2000/svg" viewBox="0 0 86.1 86.08"><defs><style>.cls-1{fill:#b0915d;}.cls-2{fill:#fff;}</style></defs><title>Asset 1</title><g id="Layer_2" data-name="Layer 2"><g id="Layer_1-2" data-name="Layer 1"><path class="cls-1" d="M0,62.25V23.83c.05-.53.1-1.07.16-1.6a24,24,0,0,1,2.14-7.7A24.93,24.93,0,0,1,14,2.54,23.77,23.77,0,0,1,22.23.16L23.89,0H62.19l.29,0a24,24,0,0,1,5.06.8,25.06,25.06,0,0,1,18.51,23.8c.09,12.21,0,24.42,0,36.64A24.44,24.44,0,0,1,85,68.45,25.06,25.06,0,0,1,61.12,86.08H25.21c-.8,0-1.6,0-2.39-.1a23.78,23.78,0,0,1-8.14-2.13A24.92,24.92,0,0,1,3,73,24.15,24.15,0,0,1,.15,63.82C.1,63.3.05,62.77,0,62.25ZM43,6.62H25.19a17.67,17.67,0,0,0-9,2.23C10,12.42,6.69,17.86,6.64,25c-.09,12,0,24,0,36A18.87,18.87,0,0,0,7,65,18.25,18.25,0,0,0,24.81,79.45c12.06,0,24.12,0,36.18,0a20.44,20.44,0,0,0,3.18-.26,17.48,17.48,0,0,0,9-4.24,18,18,0,0,0,6.29-14q0-18,0-35.91a19.38,19.38,0,0,0-.12-2.2,17.74,17.74,0,0,0-4-9.54,17.82,17.82,0,0,0-14-6.7C55.22,6.56,49.13,6.62,43,6.62Z"/><path class="cls-2" d="M23.89,0,22.23.16A23.77,23.77,0,0,0,14,2.54a24.93,24.93,0,0,0-11.73,12,24,24,0,0,0-2.14,7.7c-.06.53-.1,1.06-.16,1.6V0Z"/><path class="cls-1" d="M19.86,43A23.18,23.18,0,1,1,43,66.22,23.24,23.24,0,0,1,19.86,43ZM59.6,43A16.56,16.56,0,1,0,43.06,59.6,16.52,16.52,0,0,0,59.6,43Z"/><path class="cls-1" d="M72.84,18.21a5,5,0,1,1-4.95-5A5,5,0,0,1,72.84,18.21Z"/></g></g></svg>